<!DOCTYPE svg PUBLIC "-//W3C//DTD SVG 1.1//EN" "http://www.w3.org/Graphics/SVG/1.1/DTD/svg11.dtd">
<!-- Uploaded to: SVG Repo, www.svgrepo.com, Transformed by: SVG Repo Mixer Tools -->
<svg fill="#FFCC00" width="251px" height="251px" viewBox="0 0 512 512" xmlns="http://www.w3.org/2000/svg" stroke="#FFCC00" transform="matrix(1, 0, 0, 1, 0, 0)">
<g id="SVGRepo_bgCarrier" stroke-width="0"/>
<g id="SVGRepo_tracerCarrier" stroke-linecap="round" stroke-linejoin="round" stroke="#CCCCCC" stroke-width="2.048"/>
<g id="SVGRepo_iconCarrier">
<path d="M451.36 369.14C468.66 355.99 480 335.41 480 312c0-39.77-32.24-72-72-72h-14.07c13.42-11.73 22.07-28.78 22.07-48 0-35.35-28.65-64-64-64h-5.88c3.57-10.05 5.88-20.72 5.88-32 0-53.02-42.98-96-96-96-5.17 0-10.15.74-15.11 1.52C250.31 14.64 256 30.62 256 48c0 44.18-35.82 80-80 80h-16c-35.35 0-64 28.65-64 64 0 19.22 8.65 36.27 22.07 48H104c-39.76 0-72 32.23-72 72 0 23.41 11.34 43.99 28.64 57.14C26.31 374.62 0 404.12 0 440c0 39.76 32.24 72 72 72h368c39.76 0 72-32.24 72-72 0-35.88-26.31-65.38-60.64-70.86z"/>
</g>
</svg>